<svg width="40" height="40" viewBox="0 0 40 40" fill="none" xmlns="http://www.w3.org/2000/svg">
<g id="chat">
<mask id="mask0_2781_4573" style="mask-type:alpha" maskUnits="userSpaceOnUse" x="0" y="0" width="40" height="40">
<rect id="Bounding box" width="40" height="40" fill="#D9D9D9"/>
</mask>
<g mask="url(#mask0_2781_4573)">
<path id="chat_2" d="M3.33334 36.6668V6.66683C3.33334 5.75016 3.65973 4.96544 4.31251 4.31266C4.96529 3.65989 5.75001 3.3335 6.66668 3.3335H33.3333C34.25 3.3335 35.0347 3.65989 35.6875 4.31266C36.3403 4.96544 36.6667 5.75016 36.6667 6.66683V26.6668C36.6667 27.5835 36.3403 28.3682 35.6875 29.021C35.0347 29.6738 34.25 30.0002 33.3333 30.0002H10L3.33334 36.6668ZM10 23.3335H23.3333V20.0002H10V23.3335ZM10 18.3335H30V15.0002H10V18.3335ZM10 13.3335H30V10.0002H10V13.3335Z" fill="#FF6B35"/>
</g>
</g>
</svg>
