<svg width="540" height="540" viewBox="0 0 540 540" fill="none" xmlns="http://www.w3.org/2000/svg">
<mask id="mask0_2770_78" style="mask-type:alpha" maskUnits="userSpaceOnUse" x="5" y="46" width="494" height="494">
<rect x="6.40907" y="47.4294" width="491.678" height="491.678" fill="#D9D9D9" stroke="black"/>
</mask>
<g mask="url(#mask0_2770_78)">
<path d="M149.619 149.571V108.527H354.877V149.571V149.583H354.889H395.946C407.233 149.583 416.895 153.602 424.933 161.64C432.971 169.678 436.99 179.34 436.99 190.627V211.155C436.99 237.155 428.352 259.818 411.076 279.147C393.8 298.475 372.334 309.679 346.677 312.758L346.675 312.744L346.667 312.766C340.509 328.502 330.845 341.587 317.674 352.021C304.503 362.455 289.537 369.553 272.774 373.316L272.764 373.319V373.329V436.966V436.979H272.776H354.877V478.01H149.619V436.979H231.72H231.732V436.966V373.329V373.319L231.723 373.316C214.96 369.553 199.993 362.455 186.822 352.021C173.652 341.587 163.988 328.502 157.83 312.766L157.843 312.761L157.82 312.758C132.162 309.679 110.696 298.475 93.4201 279.147C76.1442 259.818 67.5063 237.155 67.5063 211.155V190.627C67.5063 179.34 71.5251 169.678 79.563 161.64C87.6009 153.602 97.2632 149.583 108.55 149.583H149.607H149.619V149.571ZM149.603 268.646L149.619 268.652V268.635V190.627V190.615H149.607H108.55H108.538V190.627V211.155C108.538 224.159 112.302 235.88 119.831 246.317C127.359 256.755 137.283 264.198 149.603 268.646ZM354.877 268.635V268.652L354.894 268.646C367.213 264.198 377.137 256.755 384.666 246.317C392.194 235.88 395.959 224.159 395.959 211.155V190.627V190.615H395.946H354.889H354.877V190.627V268.635Z" fill="#032946" stroke="#032946" stroke-width="0.025"/>
</g>
<mask id="mask1_2770_78" style="mask-type:alpha" maskUnits="userSpaceOnUse" x="191" y="171" width="123" height="123">
<rect x="191.298" y="171.369" width="121.9" height="121.9" fill="#D9D9D9"/>
</mask>
<g mask="url(#mask1_2770_78)">
<path d="M252.248 278.031L244.883 271.428C236.334 263.725 229.265 257.079 223.678 251.492C218.091 245.905 213.647 240.89 210.345 236.445C207.044 232.001 204.737 227.917 203.425 224.192C202.113 220.467 201.457 216.658 201.457 212.764C201.457 204.806 204.123 198.161 209.456 192.828C214.789 187.495 221.435 184.828 229.392 184.828C233.794 184.828 237.984 185.76 241.963 187.622C245.942 189.484 249.37 192.109 252.248 195.495C255.126 192.109 258.555 189.484 262.534 187.622C266.512 185.76 270.702 184.828 275.104 184.828C283.062 184.828 289.707 187.495 295.04 192.828C300.373 198.161 303.04 204.806 303.04 212.764C303.04 216.658 302.384 220.467 301.072 224.192C299.759 227.917 297.453 232.001 294.151 236.445C290.85 240.89 286.406 245.905 280.818 251.492C275.231 257.079 268.163 263.725 259.613 271.428L252.248 278.031Z" fill="white"/>
</g>
<rect x="292.224" y="49.0641" width="110.577" height="110.577" rx="55.2887" fill="#FF6B35"/>
<mask id="mask2_2770_78" style="mask-type:alpha" maskUnits="userSpaceOnUse" x="300" y="57" width="95" height="95">
<rect x="300.224" y="57.0641" width="94.5774" height="94.5774" fill="#D9D9D9"/>
</mask>
<g mask="url(#mask2_2770_78)">
<path d="M332.434 129.484C331.052 129.484 329.869 128.992 328.884 128.008C327.9 127.023 327.408 125.84 327.408 124.458V84.2478C327.408 82.8656 327.9 81.6823 328.884 80.698C329.869 79.7137 331.052 79.2216 332.434 79.2216H352.539L367.618 94.3003V124.458C367.618 125.84 367.126 127.023 366.142 128.008C365.157 128.992 363.974 129.484 362.592 129.484H332.434ZM350.026 96.8134V84.2478H332.434V124.458H362.592V96.8134H350.026Z" fill="white"/>
</g>
<rect x="424.038" width="110.577" height="110.577" rx="55.2887" fill="#FF6B35"/>
<mask id="mask3_2770_78" style="mask-type:alpha" maskUnits="userSpaceOnUse" x="424" y="0" width="111" height="111">
<rect x="424.038" width="110.577" height="110.577" fill="#D9D9D9"/>
</mask>
<g mask="url(#mask3_2770_78)">
<path d="M479.327 83.2743C475.502 83.2743 471.887 82.5397 468.483 81.0705C465.078 79.6012 462.104 77.5956 459.562 75.0536C457.02 72.5115 455.014 69.5381 453.545 66.1331C452.076 62.7282 451.341 59.1134 451.341 55.2887C451.341 51.4174 452.076 47.7909 453.545 44.4093C455.014 41.0277 457.02 38.0659 459.562 35.5239C462.104 32.9818 465.078 30.9762 468.483 29.5069C471.887 28.0377 475.502 27.3031 479.327 27.3031C483.198 27.3031 486.825 28.0377 490.206 29.5069C493.588 30.9762 496.55 32.9818 499.092 35.5239C501.634 38.0659 503.64 41.0277 505.109 44.4093C506.578 47.7909 507.313 51.4174 507.313 55.2887C507.313 59.1134 506.578 62.7282 505.109 66.1331C503.64 69.5381 501.634 72.5115 499.092 75.0536C496.55 77.5956 493.588 79.6012 490.206 81.0705C486.825 82.5397 483.198 83.2743 479.327 83.2743ZM479.327 77.5373C480.54 75.8582 481.589 74.1091 482.475 72.29C483.362 70.4709 484.085 68.5352 484.644 66.483H474.01C474.569 68.5352 475.292 70.4709 476.179 72.29C477.065 74.1091 478.114 75.8582 479.327 77.5373ZM472.051 76.4179C471.211 74.8787 470.477 73.2811 469.847 71.6253C469.217 69.9695 468.692 68.2554 468.273 66.483H460.017C461.37 68.8151 463.06 70.8441 465.089 72.5698C467.118 74.2956 469.439 75.5783 472.051 76.4179ZM486.603 76.4179C489.215 75.5783 491.536 74.2956 493.565 72.5698C495.594 70.8441 497.284 68.8151 498.637 66.483H490.381C489.962 68.2554 489.437 69.9695 488.807 71.6253C488.177 73.2811 487.443 74.8787 486.603 76.4179ZM457.638 60.8858H467.153C467.013 59.953 466.908 59.0318 466.838 58.1223C466.768 57.2127 466.733 56.2682 466.733 55.2887C466.733 54.3092 466.768 53.3647 466.838 52.4552C466.908 51.5456 467.013 50.6244 467.153 49.6916H457.638C457.405 50.6244 457.23 51.5456 457.113 52.4552C456.997 53.3647 456.938 54.3092 456.938 55.2887C456.938 56.2682 456.997 57.2127 457.113 58.1223C457.23 59.0318 457.405 59.953 457.638 60.8858ZM472.75 60.8858H485.904C486.044 59.953 486.149 59.0318 486.218 58.1223C486.288 57.2127 486.323 56.2682 486.323 55.2887C486.323 54.3092 486.288 53.3647 486.218 52.4552C486.149 51.5456 486.044 50.6244 485.904 49.6916H472.75C472.61 50.6244 472.506 51.5456 472.436 52.4552C472.366 53.3647 472.331 54.3092 472.331 55.2887C472.331 56.2682 472.366 57.2127 472.436 58.1223C472.506 59.0318 472.61 59.953 472.75 60.8858ZM491.501 60.8858H501.016C501.249 59.953 501.424 59.0318 501.541 58.1223C501.657 57.2127 501.716 56.2682 501.716 55.2887C501.716 54.3092 501.657 53.3647 501.541 52.4552C501.424 51.5456 501.249 50.6244 501.016 49.6916H491.501C491.641 50.6244 491.746 51.5456 491.816 52.4552C491.886 53.3647 491.921 54.3092 491.921 55.2887C491.921 56.2682 491.886 57.2127 491.816 58.1223C491.746 59.0318 491.641 59.953 491.501 60.8858ZM490.381 44.0945H498.637C497.284 41.7623 495.594 39.7334 493.565 38.0076C491.536 36.2818 489.215 34.9991 486.603 34.1596C487.443 35.6988 488.177 37.2963 488.807 38.9521C489.437 40.6079 489.962 42.322 490.381 44.0945ZM474.01 44.0945H484.644C484.085 42.0422 483.362 40.1065 482.475 38.2874C481.589 36.4684 480.54 34.7193 479.327 33.0401C478.114 34.7193 477.065 36.4684 476.179 38.2874C475.292 40.1065 474.569 42.0422 474.01 44.0945ZM460.017 44.0945H468.273C468.692 42.322 469.217 40.6079 469.847 38.9521C470.477 37.2963 471.211 35.6988 472.051 34.1596C469.439 34.9991 467.118 36.2818 465.089 38.0076C463.06 39.7334 461.37 41.7623 460.017 44.0945Z" fill="white"/>
</g>
<rect x="384.494" y="153.783" width="138.405" height="138.405" rx="69.2024" fill="#FF6B35"/>
<mask id="mask4_2770_78" style="mask-type:alpha" maskUnits="userSpaceOnUse" x="393" y="162" width="122" height="122">
<rect x="393.197" y="162.485" width="121" height="121" fill="#D9D9D9"/>
</mask>
<g mask="url(#mask4_2770_78)">
<path d="M427.866 231.253C425.176 231.253 422.889 230.32 421.005 228.454C419.122 226.588 418.18 224.322 418.18 221.656C418.18 218.99 419.122 216.724 421.005 214.858C422.889 212.992 425.176 212.059 427.866 212.059V205.661C427.866 203.901 428.499 202.395 429.763 201.142C431.028 199.889 432.548 199.263 434.324 199.263H444.01C444.01 196.597 444.952 194.331 446.835 192.465C448.719 190.599 451.006 189.666 453.697 189.666C456.387 189.666 458.674 190.599 460.558 192.465C462.441 194.331 463.383 196.597 463.383 199.263H473.069C474.845 199.263 476.365 199.889 477.63 201.142C478.895 202.395 479.527 203.901 479.527 205.661V212.059C482.218 212.059 484.505 212.992 486.388 214.858C488.271 216.724 489.213 218.99 489.213 221.656C489.213 224.322 488.271 226.588 486.388 228.454C484.505 230.32 482.218 231.253 479.527 231.253V244.049C479.527 245.808 478.895 247.314 477.63 248.567C476.365 249.82 474.845 250.447 473.069 250.447H434.324C432.548 250.447 431.028 249.82 429.763 248.567C428.499 247.314 427.866 245.808 427.866 244.049V231.253ZM444.01 224.855C445.356 224.855 446.499 224.388 447.441 223.455C448.383 222.522 448.853 221.389 448.853 220.056C448.853 218.723 448.383 217.59 447.441 216.657C446.499 215.724 445.356 215.258 444.01 215.258C442.665 215.258 441.521 215.724 440.58 216.657C439.638 217.59 439.167 218.723 439.167 220.056C439.167 221.389 439.638 222.522 440.58 223.455C441.521 224.388 442.665 224.855 444.01 224.855ZM463.383 224.855C464.728 224.855 465.872 224.388 466.814 223.455C467.755 222.522 468.226 221.389 468.226 220.056C468.226 218.723 467.755 217.59 466.814 216.657C465.872 215.724 464.728 215.258 463.383 215.258C462.038 215.258 460.894 215.724 459.952 216.657C459.011 217.59 458.54 218.723 458.54 220.056C458.54 221.389 459.011 222.522 459.952 223.455C460.894 224.388 462.038 224.855 463.383 224.855ZM440.782 237.651H466.612V231.253H440.782V237.651ZM434.324 244.049H473.069V205.661H434.324V244.049Z" fill="white"/>
</g>
</svg>
