<svg width="40" height="40" viewBox="0 0 40 40" fill="none" xmlns="http://www.w3.org/2000/svg">
<g id="handshake">
<mask id="mask0_2781_4579" style="mask-type:alpha" maskUnits="userSpaceOnUse" x="0" y="0" width="40" height="40">
<rect id="Bounding box" width="40" height="40" fill="#D9D9D9"/>
</mask>
<g mask="url(#mask0_2781_4579)">
<path id="handshake_2" d="M20.1667 35C19.6945 35 19.2986 34.8403 18.9792 34.5208C18.6597 34.2014 18.5 33.8056 18.5 33.3333C18.5 33.1389 18.5417 32.9375 18.625 32.7292C18.7083 32.5208 18.8333 32.3333 19 32.1667L26.7083 24.4583L25.5 23.25L17.8333 30.9583C17.6667 31.125 17.4861 31.25 17.2917 31.3333C17.0972 31.4167 16.8889 31.4583 16.6667 31.4583C16.1945 31.4583 15.7986 31.2986 15.4792 30.9792C15.1597 30.6597 15 30.2639 15 29.7917C15 29.5139 15.0417 29.2847 15.125 29.1042C15.2083 28.9236 15.3195 28.7639 15.4583 28.625L23.1667 20.9167L22 19.75L14.2917 27.4167C14.125 27.5833 13.9445 27.7083 13.75 27.7917C13.5556 27.875 13.3333 27.9167 13.0833 27.9167C12.6389 27.9167 12.25 27.75 11.9167 27.4167C11.5833 27.0833 11.4167 26.6944 11.4167 26.25C11.4167 26.0278 11.4583 25.8194 11.5417 25.625C11.625 25.4306 11.75 25.25 11.9167 25.0833L19.625 17.375L18.4167 16.2083L10.75 23.9167C10.6111 24.0556 10.4445 24.1667 10.25 24.25C10.0556 24.3333 9.81945 24.375 9.54168 24.375C9.06945 24.375 8.67362 24.2153 8.35418 23.8958C8.03473 23.5764 7.87501 23.1806 7.87501 22.7083C7.87501 22.4861 7.91668 22.2778 8.00001 22.0833C8.08334 21.8889 8.20834 21.7083 8.37501 21.5417L17.6667 12.25L23.9167 18.5417C24.2222 18.8472 24.5833 19.0903 25 19.2708C25.4167 19.4514 25.8333 19.5417 26.25 19.5417C27.1389 19.5417 27.9167 19.2292 28.5833 18.6042C29.25 17.9792 29.5833 17.1806 29.5833 16.2083C29.5833 15.8194 29.5139 15.4167 29.375 15C29.2361 14.5833 28.9861 14.1944 28.625 13.8333L21.1667 6.375C21.6389 5.93056 22.1667 5.59028 22.75 5.35417C23.3333 5.11806 23.9167 5 24.5 5C25.2222 5 25.8889 5.11806 26.5 5.35417C27.1111 5.59028 27.6667 5.95833 28.1667 6.45833L35.2083 13.5417C35.7083 14.0417 36.0764 14.5972 36.3125 15.2083C36.5486 15.8194 36.6667 16.5278 36.6667 17.3333C36.6667 17.8889 36.5417 18.4514 36.2917 19.0208C36.0417 19.5903 35.6806 20.1111 35.2083 20.5833L21.3333 34.5C21.1111 34.7222 20.9167 34.8611 20.75 34.9167C20.5833 34.9722 20.3889 35 20.1667 35ZM5.87501 21.6667L4.79168 20.5833C4.31945 20.1389 3.95834 19.6111 3.70834 19C3.45834 18.3889 3.33334 17.75 3.33334 17.0833C3.33334 16.3611 3.47223 15.6944 3.75001 15.0833C4.02779 14.4722 4.37501 13.9583 4.79168 13.5417L11.8333 6.45833C12.2778 6.01389 12.8056 5.65972 13.4167 5.39583C14.0278 5.13194 14.625 5 15.2083 5C15.9583 5 16.625 5.10417 17.2083 5.3125C17.7917 5.52083 18.3611 5.90278 18.9167 6.45833L27.4583 15C27.625 15.1667 27.75 15.3472 27.8333 15.5417C27.9167 15.7361 27.9583 15.9444 27.9583 16.1667C27.9583 16.6111 27.7917 17 27.4583 17.3333C27.125 17.6667 26.7361 17.8333 26.2917 17.8333C26.0417 17.8333 25.8333 17.7986 25.6667 17.7292C25.5 17.6597 25.3195 17.5278 25.125 17.3333L17.625 9.91667L5.87501 21.6667Z" fill="#FF6B35"/>
</g>
</g>
</svg>
